HIERARCHY
ROOT Hips
{
  OFFSET 281.309 101.946 393.466
  CHANNELS 6 Xposition Yposition Zposition Zrotation Xrotation Yrotation
  JOINT RightUpLeg
  {
    OFFSET -8.9458 -8.66707 0.101652
    CHANNELS 3 Zrotation Xrotation Yrotation
    JOINT RightLeg
    {
      OFFSET 0 -44.4227 1.3727
      CHANNELS 3 Zrotation Xrotation Yrotation
      JOINT RightFoot
      {
        OFFSET 0.253549 -42.0924 -1.46059
        CHANNELS 3 Zrotation Xrotation Yrotation
        JOINT RightToes
        {
          OFFSET 0.04 -4.41509 8.4991
          CHANNELS 3 Zrotation Xrotation Yrotation
          End Site
          {
            OFFSET -0.08 -0.137448 9.77979
          }
        }
      }
    }
  }
  JOINT Spine
  {
    OFFSET 0 11.8905 0
    CHANNELS 3 Zrotation Xrotation Yrotation
    JOINT Spine1
    {
      OFFSET 0 25.6574 0.127663
      CHANNELS 3 Zrotation Xrotation Yrotation
      JOINT HEad
      {
        OFFSET 0 8.73416 0.011341
        CHANNELS 3 Zrotation Xrotation Yrotation
        End Site
        {
          OFFSET -0.29 12.7742 2.51395
        }
      }
      JOINT LeftShoulder1
      {
        OFFSET 8.99 -0.362252 -0.22
        CHANNELS 3 Zrotation Xrotation Yrotation
        JOINT LeftArm
        {
          OFFSET 10.2827 -0.00338 0.322123
          CHANNELS 3 Zrotation Xrotation Yrotation
          JOINT LeftForeArm
          {
            OFFSET 32.7669 0.099144 -1.42434
            CHANNELS 3 Zrotation Xrotation Yrotation
            JOINT LeftHand
            {
              OFFSET 27.5643 0.085362 1.02216
              CHANNELS 3 Zrotation Xrotation Yrotation
              End Site
              {
                OFFSET 16.7443 -0.6 1.50291
              }
            }
          }
        }
      }
      JOINT RightShoulder
      {
        OFFSET -8.99 -0.362252 -0.22
        CHANNELS 3 Zrotation Xrotation Yrotation
        JOINT RightArm
        {
          OFFSET -10.2827 -0.00338 0.322123
          CHANNELS 3 Zrotation Xrotation Yrotation
          JOINT RightForeArm
          {
            OFFSET -32.8971 0.099144 -1.42434
            CHANNELS 3 Zrotation Xrotation Yrotation
            JOINT RightHand
            {
              OFFSET -27.4921 0.085362 1.02216
              CHANNELS 3 Zrotation Xrotation Yrotation
              End Site
              {
                OFFSET -16.6312 -0.6 1.50291
              }
            }
          }
        }
      }
    }
  }
  JOINT LeftUpLeg
  {
    OFFSET 8.9458 -8.66707 0.101652
    CHANNELS 3 Zrotation Xrotation Yrotation
    JOINT LeftLeg
    {
      OFFSET 0 -44.4227 1.3727
      CHANNELS 3 Zrotation Xrotation Yrotation
      JOINT LeftFoot
      {
        OFFSET -0.253549 -42.0924 -1.46059
        CHANNELS 3 Zrotation Xrotation Yrotation
        JOINT LeftToes
        {
          OFFSET -0.04 -4.41509 8.4991
          CHANNELS 3 Zrotation Xrotation Yrotation
          End Site
          {
            OFFSET 0.08 -0.047448 9.77979
          }
        }
      }
    }
  }
}
MOTION
Frames:	14
Frame Time:	0.0166667
93.17	105.41	-169.682	-36.839	5.77067	-147.475	-37.9455	10.8461	-11.4245	-2.0978	36.8371	13.8028	18.8684	-8.8631	-25.2383	0.0462048	0.000533964	0.662642	-2.23503	1.37788	0.649738	-4.48748	2.73205	1.35325	-28.1595	35.6206	36.9674	-2.78E-15	0.00E+00	-3.18E-15	-39.8698	29.2435	33.5878	19.2808	10.1704	-129.28	47.7162	13.3539	-3.97138	-2.78E-15	0.00E+00	-3.18E-15	72.7527	45.2904	-18.9036	8.12456	10.3007	42.8852	11.9829	4.26534	-14.8222	95.3492	-50.8491	84.012	-5.08493	56.9118	10.4513	-0.32726	-3.35395	-28.839	9.54E-15	3.10E-14	3.18E-15
93.082	104.976	-169.692	-36.3524	6.50747	-147.316	-37.4525	11.0633	-11.2872	-2.04132	37.8387	14.1123	19.5961	-9.41938	-24.7499	0.0462048	0.000533964	0.662642	-2.10064	1.3222	0.596799	-4.21663	2.62435	1.24209	-27.4358	36.0091	36.7379	3.18E-15	5.57E-15	0.00E+00	-40.2721	29.172	33.5202	18.5873	10.9908	-128.403	47.754	12.8312	-4.42999	3.18E-15	5.57E-15	0.00E+00	72.3232	44.6586	-18.7381	8.15342	10.913	42.9227	12.645	4.19635	-15.1528	95.2803	-51.1957	84.1891	-7.1558	56.5033	13.096	-0.531732	-4.24497	-28.8392	1.59E-14	3.18E-14	1.27E-14
93.089	104.604	-169.83	-35.7172	7.28426	-147.371	-36.6646	11.3553	-11.3542	-1.92732	38.4799	14.12	19.9817	-10.1579	-24.3773	0.0462048	0.000533964	0.662642	-1.97262	1.28127	0.545923	-3.95884	2.54571	1.13597	-26.6817	36.2202	36.5741	-4.77E-15	7.95E-16	-6.36E-15	-40.59	29.0475	33.3324	18.1413	11.5791	-127.464	47.6644	12.481	-4.75486	-4.77E-15	7.95E-16	-6.36E-15	72.0457	44.2057	-18.3856	8.29253	11.2428	42.577	12.9894	4.13535	-15.3149	95.4697	-51.5811	84.5497	-8.55827	56.5125	14.9162	-0.996924	-5.09661	-28.5451	1.59E-14	3.18E-14	1.27E-14
93.188	104.327	-170.102	-35.109	8.28169	-147.587	-35.7195	11.8698	-11.4361	-1.68621	38.8459	13.8551	19.8574	-10.6194	-23.8185	0.0462048	0.000533964	0.662642	-1.87428	1.26802	0.523438	-3.76145	2.52098	1.08838	-25.8933	36.5095	36.4913	1.77E-31	-1.59E-15	6.36E-15	-40.9134	28.9375	33.3062	17.9391	12.0847	-126.614	47.6801	12.1149	-4.81577	1.77E-31	-1.59E-15	6.36E-15	72.3896	43.8931	-18.3546	8.30661	11.3159	41.9875	13.1359	3.87855	-15.1868	95.4032	-51.9748	84.6122	-9.54607	56.8413	16.1597	-1.65202	-5.86411	-28.0729	1.91E-14	3.02E-14	9.54E-15
93.414	104.134	-170.514	-34.5074	9.45549	-147.899	-34.5813	12.4303	-11.4662	-1.33448	39.2519	13.4156	19.1621	-10.9007	-23.5593	0.0462048	0.000533964	0.662642	-1.78881	1.27699	0.528383	-3.59066	2.5396	1.09668	-25.1233	36.8657	36.4172	-5.57E-15	4.77E-15	-3.18E-15	-41.2433	28.7724	33.3479	17.6624	12.6967	-125.795	47.8663	11.6423	-4.99307	-5.57E-15	4.77E-15	-3.18E-15	73.3155	43.6329	-18.6913	8.13858	11.3136	41.2548	13.1602	3.60677	-14.8263	94.9316	-52.4183	84.2134	-10.3685	57.2494	17.084	-2.33505	-6.49817	-27.4887	1.27E-14	3.50E-14	0.00E+00
93.795	104.014	-171.026	-33.9155	10.3528	-148.064	-33.3624	12.7967	-11.6797	-0.921016	39.7173	12.518	18.2197	-11.0338	-23.6303	0.0462048	0.000533964	0.662642	-1.72918	1.26278	0.531947	-3.47104	2.51178	1.09465	-24.3957	37.1937	36.0922	3.18E-15	3.18E-15	-6.36E-15	-41.6285	28.5539	33.0881	17.4017	13.2762	-124.936	48.1997	11.2461	-5.37037	3.18E-15	3.18E-15	-6.36E-15	74.2632	43.097	-19.0667	7.79884	11.4853	40.4708	12.9387	3.11652	-14.103	94.0461	-53.2378	83.9114	-10.6515	57.5225	17.4886	-2.9031	-7.05262	-26.9198	1.59E-14	3.18E-14	1.27E-14
94.31	103.967	-171.602	-33.4493	10.88	-148.325	-32.272	12.8458	-11.9963	-0.784552	40.1113	11.7939	17.3817	-11.0036	-23.8778	0.0462048	0.000533964	0.662642	-1.71611	1.21497	0.534527	-3.44466	2.41611	1.10547	-23.9232	37.3817	35.7571	-1.59E-15	-4.77E-15	-3.18E-15	-42.2058	28.2347	32.6464	17.1408	13.7403	-123.925	48.5098	10.7574	-5.84872	-1.59E-15	-4.77E-15	-3.18E-15	74.8397	42.4769	-19.2304	7.54166	11.798	39.6541	12.7527	2.69576	-13.3167	92.6018	-54.1087	83.42	-10.7645	57.6384	17.7321	-3.43415	-7.60551	-26.4669	1.27E-14	3.18E-14	9.54E-15
94.894	104.007	-172.27	-33.0102	11.0207	-148.833	-31.3659	12.5771	-12.2661	-0.856977	40.3834	11.5441	16.7271	-10.9903	-24.1533	0.0462048	0.000533964	0.662642	-1.73664	1.12063	0.535541	-3.48469	2.22725	1.10501	-23.7949	37.3395	35.5995	7.95E-16	4.77E-15	3.18E-15	-42.9535	27.7317	32.2909	16.7411	14.1067	-122.945	48.569	10.1511	-6.41689	7.95E-16	4.77E-15	3.18E-15	75.1117	42.2155	-19.1314	7.3987	11.9104	38.871	12.827	2.44142	-12.7072	91.2525	-54.8675	82.8595	-11.3345	57.7899	18.4437	-3.93565	-8.04656	-26.1093	2.23E-14	3.50E-14	3.18E-15
95.437	104.107	-173.033	-32.5496	10.9159	-149.346	-30.5972	12.3018	-12.6043	-0.902332	40.4633	11.501	16.2307	-10.9692	-24.3238	0.0462048	0.000533964	0.662642	-1.77446	1.00366	0.525484	-3.55889	1.99331	1.08194	-23.7233	37.1292	35.3232	-2.39E-15	6.36E-15	-6.36E-15	-43.7725	27.2884	31.9804	16.4591	14.2263	-122.189	48.316	9.58638	-6.82177	-2.39E-15	6.36E-15	-6.36E-15	75.3223	42.1935	-18.9484	7.34395	11.6821	38.226	13.0703	2.29936	-12.2277	90.2707	-55.8639	82.5542	-11.9931	58.1579	19.1812	-4.4599	-8.39075	-25.7142	1.59E-14	3.34E-14	1.27E-14
95.879	104.227	-173.819	-32.1305	11.0717	-150.1	-29.9964	12.2338	-12.5764	-0.775256	40.4569	11.3034	16.0095	-10.8128	-24.1727	0.0462048	0.000533964	0.662642	-1.81162	0.908025	0.562539	-3.63276	1.80055	1.15361	-23.7809	37.0036	35.2793	-3.18E-15	0.00E+00	0.00E+00	-44.6738	27.0976	31.9128	16.4177	14.0117	-121.54	47.9603	9.15032	-7.03295	-3.18E-15	0.00E+00	0.00E+00	75.8052	42.519	-19.0008	7.25731	11.3713	37.728	13.3969	2.35166	-11.8133	89.3101	-56.77	81.9847	-12.619	58.8454	19.716	-5.06318	-8.65892	-25.3037	1.27E-14	3.18E-14	9.54E-15
96.2	104.338	-174.586	-31.7288	11.3292	-150.952	-29.5663	12.164	-12.4886	-0.662706	40.5838	11.1687	16.1353	-10.6085	-23.9764	0.0462048	0.000533964	0.662642	-1.84434	0.813042	0.637603	-3.69818	1.60787	1.30113	-23.8965	37.0041	35.347	3.98E-15	1.59E-15	9.54E-15	-45.6099	27.0796	31.7833	16.5842	13.5875	-120.775	47.506	8.73029	-7.28768	3.98E-15	1.59E-15	9.54E-15	76.3875	42.9046	-19.1876	7.07113	11.2823	37.3306	13.7676	2.4359	-11.4567	88.4525	-57.6472	81.3975	-13.4411	59.7078	20.3573	-5.62421	-8.78894	-24.9719	9.54E-15	3.82E-14	0.00E+00
96.411	104.399	-175.29	-31.2227	11.5243	-151.957	-29.1873	11.8676	-12.4074	-0.679265	40.8433	11.2324	16.4999	-10.477	-23.744	0.0462048	0.000533964	0.662642	-1.86E+00	0.708398	0.73992	-3.72184	1.39518	1.50246	-24.0262	36.9428	35.5002	-4.77E-15	3.18E-15	3.18E-15	-46.4779	26.8569	31.4923	16.9468	13.196	-119.83	46.9538	8.38871	-7.65699	-4.77E-15	3.18E-15	3.18E-15	76.8704	43.3265	-19.2867	6.92519	11.2181	36.9942	13.9985	2.4725	-11.1803	87.7856	-58.4864	81.1961	-14.1557	60.5461	20.9607	-6.11889	-8.84822	-24.7879	2.23E-14	3.82E-14	-3.18E-15
96.542	104.384	-175.909	-30.5884	11.571	-153.013	-28.8074	11.3399	-12.2943	-0.752386	41.228	11.4359	16.9541	-10.457	-23.2338	0.0462048	0.000533964	0.662642	-1.84038	0.605672	0.843359	-3.6898	1.18667	1.70577	-24	36.7769	35.5316	5.57E-15	-6.36E-15	6.36E-15	-47.1142	26.2938	31.1197	17.3632	13.1194	-118.962	46.2256	7.8718	-8.0524	5.57E-15	-6.36E-15	6.36E-15	77.1464	43.6963	-19.1976	6.82783	10.9987	36.6974	14.1321	2.52391	-10.9525	87.288	-59.3515	81.5349	-14.6578	61.1968	21.5009	-6.54307	-8.84364	-24.7773	6.36E-15	2.86E-14	0.00E+00
96.593	104.292	-176.42	-29.8445	11.5027	-154.03	-28.3725	10.6346	-11.9187	-0.611925	41.699	11.2569	17.5368	-10.5866	-22.6091	0.0462048	0.000533964	0.662642	-1.7992	0.519685	0.931499	-3.60685	1.01258	1.87885	-23.7053	36.5013	35.2803	3.98E-15	-1.59E-15	-3.18E-15	-47.5255	25.485	30.823	17.5756	13.4498	-118.417	45.4222	7.36821	-8.38104	3.98E-15	-1.59E-15	-3.18E-15	77.156	43.9081	-18.8868	6.78017	10.7609	36.408	14.2821	2.42736	-10.5849	86.999	-60.2403	82.4213	-14.9472	61.7011	21.9385	-6.88706	-8.76534	-24.9522	9.54E-15	1.91E-14	9.54E-15
